<?xml version="1.0" encoding="UTF-8" standalone="no"?><!DOCTYPE svg PUBLIC "-//W3C//DTD SVG 1.1//EN" "http://www.w3.org/Graphics/SVG/1.1/DTD/svg11.dtd"><svg width="100%" height="100%" viewBox="0 0 13021 8213" version="1.1" xmlns="http://www.w3.org/2000/svg" xmlns:xlink="http://www.w3.org/1999/xlink" xml:space="preserve" xmlns:serif="http://www.serif.com/" style="fill-rule:evenodd;clip-rule:evenodd;stroke-linejoin:round;stroke-miterlimit:2;"><g><g><path d="M868.605,4378.62c3.145,1.737 5.591,-2.775 2.793,-4.858c-88.431,-64.238 -125.132,-147.225 -131.075,-253.821c-0.349,-6.596 -9.262,-6.25 -10.134,-0c-12.76,101.562 50.505,209.55 138.416,258.679Zm48.059,102.604c1.573,0.696 2.798,-2.083 1.225,-2.95c-102.763,-50.346 -173.896,-122.917 -231.393,-220.312c-2.97,-5.034 -9.962,-0.696 -7.689,4.341c45.787,98.784 137.367,178.471 237.857,218.921Zm9428.33,-2934.72c8.388,-1.562 4.894,-15.45 -3.67,-13.021c-55.753,16.492 -100.318,46.18 -130.728,96.009c-1.396,2.429 2.274,4.512 3.847,2.254c31.109,-42.533 78.12,-75.692 130.551,-85.242Zm55.924,49.134c5.071,-4.167 -1.745,-13.196 -7.164,-9.205c-64.489,48.267 -111.849,118.58 -133.345,195.834c-1.577,5.383 6.64,7.641 8.389,2.258c26.387,-76.387 69.904,-137.154 132.12,-188.887Zm-7406.95,1694.27c33.731,-25.87 60.294,-57.12 83.015,-92.883c3.494,-5.383 -5.595,-10.762 -8.565,-5.033c-19.747,36.108 -47.363,67.358 -79.345,93.054c-3.494,2.779 1.401,7.467 4.895,4.862Zm96.995,-38.891c-11.186,78.996 -76.023,139.758 -158.163,137.85c-3.846,-0 -3.846,5.9 0,6.075c82.488,4.687 161.833,-59.375 168.125,-142.534c0.524,-5.558 -9.089,-6.945 -9.962,-1.391Zm4665.78,-179.513c67.287,-6.25 139.64,-28.471 198.886,-60.762c5.592,-2.954 1.745,-12.85 -4.37,-10.417c-65.19,27.083 -127.057,47.567 -195.388,65.275c-3.146,0.871 -2.622,6.25 0.872,5.904Zm149.602,-7.466c-82.491,54.166 -167.08,79.341 -266.173,68.229c-3.67,-0.346 -4.543,5.904 -0.873,6.425c95.423,14.758 196.437,-6.946 272.637,-67.363c4.019,-3.296 -1.224,-10.066 -5.591,-7.291Zm-7718.43,-1786.63c-132.997,-54.687 -211.944,-35.533 -226.071,-89.391c-76.724,-292.471 -24.369,-4735.71 22.294,-4735.88l227.022,-13.446c186.476,-0.346 372.779,-0.696 559.254,-1.217c1520.13,-3.125 3040.25,-6.25 4560.54,-9.375c1513.66,-3.125 3027.3,-6.596 4541.12,-9.375c750.976,-1.212 1502.3,-0.521 2252.92,23.267c190.498,6.075 380.996,13.542 571.489,22.917c149.426,7.291 277.997,-73.267 359.088,82.291c41.596,79.859 65.949,6128.46 2.68,6169.25l0,-0.696c499.908,-146.131 275.975,-169.653 278.072,-156.111c0.52,2.604 125.497,-94.527 -297.995,169.478c-309.686,193.058 -691.03,271.183 -1052.8,198.958c-121.113,-24.129 -253.061,-63.366 -340.271,-155.554c-116.92,-124.133 -80.219,-292.533 -47.188,-441.841c46.315,-208.334 38.451,-400.867 -86.509,-581.942c-235.936,-341.842 -703.261,-401.217 -1001.07,-102.779c-137.191,137.5 -220.903,330.904 -200.98,526.041c27.264,267.188 198.01,510.071 281.198,761.805c136.671,413.716 242.752,1012.15 -90.7,1368.4c-378.898,404.512 -978.875,51.908 -1129,-386.284c-97.868,-286.287 -68.859,-596.704 -6.639,-887.154c44.213,-206.425 120.237,-413.716 91.924,-628.125c-19.747,-148.612 -108.878,-286.112 -272.288,-296.875c-203.777,-13.366 -362.293,186.284 -467.518,332.988c-317.534,443.229 -764.57,960.587 -1380.8,848.087c-498.787,-90.971 -799.56,-593.575 -1176.18,-883.333c-389.204,-299.479 -859.33,-493.75 -1347.8,-555.379c-396.548,-50.175 -869.292,-5.729 -1170.24,285.416c-149.426,144.442 -213.567,332.117 -244.149,532.813c-33.031,217.708 -31.11,464.233 -160.088,653.296c-151.175,221.875 -453.869,263.891 -685.61,146.875c-237.509,-119.963 -351.635,-394.617 -344.991,-649.304c6.816,-259.375 170.746,-488.542 161.657,-748.959c-6.115,-174.304 -103.459,-348.262 -292.036,-368.75c-163.93,-17.708 -330.134,78.471 -425.733,206.075c-143.658,191.842 -122.162,459.375 -87.206,681.946c47.536,301.217 102.763,598.958 130.027,903.125c22.369,250.346 54.175,520.138 -10.486,767.013c-65.538,249.829 -265.297,430.729 -535.14,400.175c-254.458,-28.646 -462.782,-206.425 -566.594,-432.813c-116.219,-253.3 -120.765,-541.842 -113.773,-815.104c7.864,-305.383 29.885,-610.417 65.013,-913.888c48.584,-418.058 145.232,-1015.45 -344.466,-1216.67l0.017,0.016Z" style="fill:#f37576;fill-rule:nonzero;"/></g></g></svg>